<?xml version="1.0" standalone="no"?>
<!DOCTYPE svg PUBLIC "-//W3C//DTD SVG 20010904//EN"
 "http://www.w3.org/TR/2001/REC-SVG-20010904/DTD/svg10.dtd">
<svg version="1.0" xmlns="http://www.w3.org/2000/svg"
 width="1024.000000pt" height="1024.000000pt" viewBox="0 0 1024.000000 1024.000000"
 preserveAspectRatio="xMidYMid meet">
<metadata>
Created by potrace 1.14, written by Peter Selinger 2001-2017
</metadata>
<g transform="translate(0.000000,1024.000000) scale(0.100000,-0.100000)"
fill="#000000" stroke="none">
<path d="M6230 9819 c-30 -5 -120 -15 -198 -24 -79 -8 -169 -19 -200 -25 -32
-5 -109 -17 -172 -26 -206 -27 -312 -43 -364 -54 -28 -5 -91 -17 -141 -26
-366 -63 -725 -142 -1070 -234 -44 -12 -107 -28 -140 -36 -33 -9 -64 -20 -69
-25 -6 -5 -18 -9 -27 -9 -10 0 -55 -12 -101 -26 -191 -60 -364 -118 -373 -124
-5 -4 -23 -10 -40 -14 -16 -4 -43 -14 -60 -21 -16 -7 -48 -19 -70 -25 -22 -7
-44 -16 -50 -20 -5 -4 -27 -13 -48 -20 -22 -7 -51 -18 -65 -26 -15 -8 -31 -14
-35 -14 -9 0 -28 -8 -129 -54 -31 -14 -59 -26 -62 -26 -6 0 -211 -96 -311
-147 -164 -82 -433 -229 -445 -242 -3 -4 -16 -12 -30 -19 -57 -30 -90 -50
-139 -85 -28 -20 -55 -37 -61 -37 -5 0 -13 -6 -17 -13 -4 -7 -32 -28 -60 -47
-29 -18 -53 -37 -53 -42 0 -4 -5 -8 -11 -8 -9 0 -107 -76 -189 -147 -120 -103
-385 -363 -467 -458 -29 -33 -62 -71 -74 -85 -126 -144 -345 -472 -427 -640
-9 -19 -20 -37 -23 -40 -3 -3 -12 -22 -20 -42 -7 -21 -17 -38 -21 -38 -4 0 -8
-5 -8 -10 0 -10 -9 -31 -66 -157 -13 -28 -24 -55 -24 -58 0 -4 -6 -21 -14 -38
-24 -54 -84 -238 -105 -322 -11 -44 -29 -114 -41 -155 -25 -92 -56 -214 -75
-300 -8 -36 -19 -83 -25 -105 -9 -36 -17 -87 -50 -335 -5 -36 -14 -178 -21
-317 -10 -203 -10 -295 0 -475 7 -123 16 -253 21 -288 32 -234 56 -373 90
-515 10 -44 22 -96 25 -115 4 -19 10 -39 14 -45 3 -5 13 -39 23 -75 32 -127
49 -185 62 -215 8 -16 17 -45 21 -63 4 -18 13 -45 21 -60 8 -15 14 -33 14 -40
0 -8 7 -30 16 -50 9 -21 26 -57 37 -82 67 -153 274 -549 296 -570 4 -3 14 -18
23 -35 59 -105 93 -160 100 -163 4 -2 8 -8 8 -14 0 -11 61 -101 73 -106 4 -2
7 -8 7 -14 0 -11 54 -90 83 -123 10 -11 37 -45 60 -75 51 -68 341 -367 548
-565 92 -88 172 -155 184 -155 4 0 12 -6 19 -12 7 -7 28 -24 46 -38 19 -14 46
-35 61 -48 15 -12 31 -22 37 -22 6 0 12 -3 14 -7 4 -10 94 -73 103 -73 3 0 11
-5 18 -10 25 -21 86 -58 106 -65 12 -3 21 -10 21 -14 0 -5 15 -15 33 -22 17
-7 37 -17 42 -21 33 -28 143 -92 202 -118 37 -17 75 -35 85 -40 9 -5 54 -23
100 -40 93 -35 118 -46 199 -84 31 -14 63 -26 72 -26 9 0 18 -4 21 -9 12 -18
357 -123 516 -157 262 -55 421 -72 730 -80 272 -7 565 6 705 31 225 40 265 47
325 59 36 7 110 25 165 40 55 16 123 34 150 41 284 77 653 227 940 383 152 83
210 116 213 124 2 4 8 8 14 8 6 0 26 11 44 25 18 14 35 25 38 25 5 0 178 116
222 149 12 9 32 23 44 31 20 13 96 69 159 117 13 10 31 25 40 33 9 8 32 27 51
41 19 15 47 37 61 50 14 13 52 47 85 74 108 92 349 322 436 416 47 52 99 108
115 124 15 17 53 60 83 95 30 34 60 68 65 74 62 70 115 137 115 145 0 6 4 11
8 11 4 0 34 35 67 78 33 42 63 82 67 87 97 124 204 274 305 425 45 69 86 130
91 135 4 6 27 42 52 80 94 149 140 227 140 235 0 5 4 10 8 12 11 4 152 252
152 267 0 6 4 11 8 11 5 0 25 33 46 73 21 39 58 110 83 157 94 175 223 433
223 446 0 8 5 14 10 14 6 0 10 4 10 10 0 5 23 58 51 117 48 103 62 133 109
238 11 25 29 65 40 90 19 43 46 104 74 170 7 17 21 47 30 68 9 22 32 78 50
125 19 48 41 101 50 117 9 17 16 37 16 46 0 8 4 19 8 25 5 5 15 25 22 44 7 19
18 49 25 65 7 17 25 64 40 105 16 41 37 94 47 117 10 23 18 47 18 53 0 7 7 26
14 43 28 60 58 162 63 212 5 58 -8 228 -37 465 -54 451 -137 788 -285 1159
-51 130 -170 380 -185 391 -4 3 -10 14 -14 25 -6 20 -85 149 -106 172 -5 7
-10 16 -10 20 -1 8 -65 98 -109 153 -11 14 -40 50 -63 80 -124 160 -319 348
-516 498 -12 9 -28 22 -35 27 -60 51 -362 235 -385 235 -6 0 -12 4 -14 8 -3 8
-68 40 -180 91 -27 11 -67 30 -91 41 -24 11 -50 20 -58 20 -8 0 -19 4 -25 9
-5 5 -70 30 -144 54 -189 64 -252 81 -435 122 -38 8 -99 22 -135 30 -36 8 -87
17 -115 21 -27 3 -84 12 -125 20 -41 7 -129 18 -195 24 -66 6 -158 15 -205 20
-105 11 -416 10 -490 -1z m-2859 -2131 c104 -35 184 -99 236 -189 45 -81 53
-135 53 -384 0 -173 3 -236 13 -249 9 -12 35 -20 87 -26 107 -13 335 -32 405
-34 l60 -1 5 265 c5 286 10 310 68 387 47 63 174 123 261 123 47 0 147 -29
196 -56 81 -47 152 -133 185 -227 18 -51 20 -83 20 -340 0 -320 -6 -294 84
-337 110 -52 295 -190 391 -292 91 -96 229 -300 250 -370 4 -13 13 -32 20 -43
17 -28 52 -144 75 -255 28 -131 28 -331 0 -460 -44 -203 -108 -325 -237 -456
-35 -34 -63 -66 -63 -70 0 -4 33 -41 73 -84 251 -262 375 -546 393 -901 21
-404 -128 -760 -420 -998 -39 -32 -82 -64 -96 -71 -14 -7 -27 -16 -30 -20 -9
-13 -174 -87 -250 -112 -41 -14 -96 -29 -122 -32 -25 -4 -51 -13 -57 -19 -6
-8 -11 -116 -13 -282 -3 -267 -3 -271 -29 -325 -31 -66 -76 -112 -144 -148
-45 -24 -60 -27 -155 -27 -95 1 -110 3 -160 29 -107 55 -172 124 -216 226 -17
39 -20 78 -24 300 l-5 254 -35 8 c-56 12 -299 38 -364 38 -32 0 -77 5 -99 12
-65 19 -67 11 -67 -243 0 -271 -12 -322 -94 -404 -175 -176 -486 -101 -604
145 -27 54 -27 58 -30 313 -3 228 -5 258 -20 266 -9 5 -65 14 -124 21 -64 7
-122 20 -145 31 -20 10 -42 19 -48 19 -21 0 -95 80 -122 132 l-28 53 0 1950
c0 1779 1 1953 16 1986 28 61 76 106 137 130 51 19 70 21 183 16 69 -3 130 -2
136 1 8 5 13 94 15 277 l3 270 29 54 c18 33 50 70 84 96 94 74 206 92 323 53z"/>
<path d="M3200 4735 l0 -1435 23 -9 c12 -5 74 -14 137 -20 63 -6 162 -16 220
-21 140 -14 274 -27 395 -40 160 -17 370 -38 505 -51 268 -25 436 17 560 142
114 115 156 257 147 493 -4 102 -11 158 -25 201 -80 244 -263 368 -597 404
-55 6 -152 18 -215 26 -63 8 -142 14 -175 15 -36 0 -89 10 -135 25 -152 51
-213 148 -212 335 1 167 52 240 184 262 63 10 166 4 568 -32 100 -9 116 -8
218 16 98 23 172 84 214 174 28 60 41 214 28 331 -12 109 -34 177 -81 251 -51
79 -114 126 -254 189 -80 36 -345 78 -625 99 -74 6 -166 14 -205 20 -38 5
-124 14 -190 20 -66 6 -184 18 -262 25 -78 8 -161 15 -183 15 l-40 0 0 -1435z"/>
</g>
</svg>
