<?xml version="1.0" standalone="no"?>
<!DOCTYPE svg PUBLIC "-//W3C//DTD SVG 20010904//EN"
 "http://www.w3.org/TR/2001/REC-SVG-20010904/DTD/svg10.dtd">
<svg version="1.0" xmlns="http://www.w3.org/2000/svg"
 width="1024.000000pt" height="1024.000000pt" viewBox="0 0 1024.000000 1024.000000"
 preserveAspectRatio="xMidYMid meet">
<metadata>
Created by potrace 1.14, written by Peter Selinger 2001-2017
</metadata>
<g transform="translate(0.000000,1024.000000) scale(0.100000,-0.100000)"
fill="#000000" stroke="none">
<path d="M6168 9825 c-53 -7 -104 -15 -112 -18 -9 -4 -71 -13 -138 -22 -67 -9
-125 -18 -130 -21 -4 -3 -61 -14 -125 -24 -155 -25 -323 -56 -349 -64 -11 -3
-64 -15 -119 -25 -95 -18 -175 -36 -365 -79 -84 -19 -116 -27 -235 -58 -33 -8
-89 -22 -125 -30 -36 -8 -74 -18 -85 -23 -11 -5 -33 -12 -50 -15 -16 -4 -59
-15 -95 -26 -36 -10 -105 -31 -155 -46 -147 -43 -249 -75 -270 -85 -11 -5 -42
-16 -70 -24 -74 -21 -168 -53 -187 -65 -10 -5 -23 -10 -29 -10 -6 0 -41 -11
-77 -25 -144 -55 -279 -109 -317 -126 -22 -9 -74 -32 -115 -49 -41 -18 -91
-39 -110 -47 -52 -23 -425 -209 -500 -249 -101 -55 -295 -172 -400 -242 -52
-34 -103 -68 -114 -75 -71 -46 -329 -244 -396 -304 -14 -12 -36 -32 -50 -43
-149 -127 -408 -395 -513 -532 -123 -160 -124 -160 -172 -233 -22 -33 -42 -62
-45 -65 -3 -3 -19 -27 -35 -55 -17 -27 -34 -58 -40 -67 -5 -9 -27 -47 -48 -85
-21 -37 -42 -75 -47 -83 -14 -23 -65 -129 -94 -195 -15 -33 -31 -67 -36 -76
-14 -28 -70 -170 -70 -180 0 -6 -8 -29 -19 -52 -10 -23 -31 -94 -46 -157 -16
-63 -32 -124 -36 -135 -10 -24 -44 -152 -68 -255 -10 -41 -20 -82 -24 -90 -13
-31 -57 -312 -77 -494 -26 -239 -30 -685 -6 -871 8 -66 17 -149 21 -185 3 -36
13 -99 21 -140 7 -41 20 -111 28 -155 20 -111 51 -246 76 -335 12 -41 31 -109
42 -150 11 -41 23 -79 28 -85 4 -5 13 -34 20 -63 6 -28 16 -55 21 -58 5 -3 9
-12 9 -20 0 -17 38 -117 81 -212 16 -34 29 -67 29 -72 0 -6 5 -10 10 -10 6 0
10 -5 10 -11 0 -13 69 -151 79 -159 3 -3 23 -39 44 -80 21 -41 51 -97 67 -125
16 -27 32 -57 36 -65 4 -8 25 -40 46 -72 21 -31 38 -60 38 -64 0 -10 153 -238
163 -242 4 -2 7 -8 7 -14 0 -5 21 -36 47 -68 27 -31 64 -77 83 -101 77 -95
545 -553 632 -619 137 -104 137 -104 151 -116 6 -6 37 -27 67 -47 76 -51 80
-55 120 -79 109 -68 143 -88 151 -88 5 0 9 -4 9 -10 0 -5 6 -10 13 -11 6 0 39
-18 72 -39 33 -22 89 -53 125 -70 36 -17 78 -37 94 -46 16 -8 66 -29 110 -45
45 -17 113 -44 151 -61 128 -56 230 -95 265 -103 19 -4 40 -11 45 -15 6 -5 33
-14 60 -20 28 -6 59 -16 70 -21 37 -17 306 -72 485 -99 292 -44 791 -44 1095
0 120 18 327 57 410 78 241 61 418 113 517 153 26 10 53 19 60 19 7 1 31 9 53
20 22 11 44 19 48 20 7 0 44 16 152 65 17 7 57 25 90 40 76 34 166 79 230 114
129 69 182 99 205 113 268 165 404 258 620 427 39 31 153 124 171 141 9 8 45
40 80 70 125 106 528 517 649 660 30 36 63 74 74 85 10 11 30 36 45 55 14 19
33 42 41 51 28 32 43 52 130 163 47 61 101 134 120 161 19 28 41 54 48 58 6 4
12 12 12 17 0 7 55 86 107 155 11 14 65 96 78 117 5 9 45 69 88 132 42 64 77
118 77 121 0 3 8 18 19 33 16 23 79 123 118 187 12 20 91 156 122 210 10 17
33 57 51 90 18 33 52 94 75 135 91 161 292 557 385 755 23 50 54 117 70 150
15 33 38 83 50 110 12 28 33 73 45 100 13 28 33 73 45 100 12 28 25 58 30 67
5 9 26 59 46 110 20 51 39 98 44 103 4 6 13 26 19 46 6 20 20 53 31 74 11 22
20 47 20 57 0 9 4 19 9 23 5 3 15 22 22 43 6 20 20 55 30 78 42 93 50 170 46
400 -4 213 -18 402 -37 514 -32 182 -81 393 -100 435 -5 11 -14 39 -20 62 -6
23 -17 54 -25 70 -8 15 -15 34 -15 42 0 8 -8 32 -19 55 -10 23 -29 65 -42 95
-70 157 -169 334 -274 487 -27 40 -153 201 -189 244 -37 42 -303 307 -337 335
-172 141 -204 165 -349 265 -38 26 -158 104 -180 116 -14 8 -43 26 -65 39 -84
50 -376 200 -466 239 -24 11 -62 28 -84 38 -91 41 -314 128 -395 154 -25 8
-54 18 -65 24 -11 5 -40 14 -65 21 -25 6 -49 14 -55 19 -5 4 -35 13 -65 20
-30 7 -62 17 -70 21 -30 17 -383 111 -559 149 -46 11 -91 22 -100 25 -9 4 -52
13 -96 21 -94 16 -202 16 -337 -1z m-2877 -2127 c120 -40 208 -115 257 -219
40 -85 42 -101 43 -344 0 -235 4 -272 28 -284 9 -5 98 -17 196 -25 99 -9 221
-20 270 -25 69 -7 93 -6 103 3 11 10 13 64 13 237 -1 315 21 401 122 474 107
78 223 95 347 53 147 -49 236 -139 279 -282 19 -61 21 -94 21 -330 0 -143 3
-271 6 -284 5 -17 33 -36 108 -72 55 -28 117 -60 136 -72 50 -31 175 -133 244
-198 56 -53 196 -220 196 -235 0 -4 9 -19 19 -34 29 -41 106 -199 130 -268 46
-131 75 -320 67 -441 -18 -283 -106 -491 -280 -662 -31 -30 -56 -58 -56 -61 0
-4 6 -14 14 -21 149 -141 231 -242 324 -398 55 -92 121 -275 148 -405 8 -44
18 -147 21 -230 5 -135 3 -162 -21 -271 -32 -150 -47 -197 -98 -299 -157 -316
-444 -543 -791 -625 -48 -12 -94 -23 -102 -26 -11 -5 -14 -60 -17 -292 -3
-276 -4 -289 -26 -333 -109 -220 -424 -251 -616 -62 -107 107 -127 180 -128
475 0 143 -4 213 -12 224 -9 11 -38 18 -97 24 -46 5 -156 16 -244 25 -88 9
-180 15 -205 13 l-45 -3 -6 -260 c-5 -245 -7 -263 -29 -305 -70 -137 -173
-195 -335 -188 -69 3 -92 8 -156 40 -132 66 -217 175 -239 309 -5 35 -10 155
-10 265 0 166 -3 204 -15 214 -8 7 -54 17 -102 22 -130 13 -238 50 -295 98
-107 92 -114 149 -122 915 -25 2518 -27 3148 -8 3222 11 40 25 64 60 98 67 66
120 79 289 72 96 -4 135 -2 140 6 5 7 8 125 8 262 0 272 5 305 57 382 85 126
250 175 409 121z"/>
<path d="M3124 6149 c-7 -12 -7 -820 1 -1289 2 -151 7 -581 10 -955 5 -496 10
-683 18 -692 7 -7 64 -17 127 -23 63 -6 176 -18 250 -26 74 -8 191 -19 260
-24 69 -5 217 -18 330 -29 453 -44 564 -52 620 -42 184 31 279 72 355 150 88
92 105 123 136 247 43 171 24 418 -43 554 -40 80 -152 196 -224 233 -143 72
-275 97 -709 132 -185 15 -260 31 -326 72 -77 48 -129 169 -129 296 0 87 14
141 47 185 62 83 152 102 374 79 222 -24 464 -39 507 -32 146 24 212 53 271
122 71 83 85 134 86 308 0 129 -3 160 -23 222 -29 89 -101 195 -167 246 -93
72 -243 127 -395 147 -47 6 -119 15 -160 20 -41 5 -140 14 -220 19 -148 10
-411 35 -736 71 -207 23 -250 24 -260 9z"/>
</g>
</svg>
