<?xml version="1.0" standalone="no"?>
<!DOCTYPE svg PUBLIC "-//W3C//DTD SVG 20010904//EN"
 "http://www.w3.org/TR/2001/REC-SVG-20010904/DTD/svg10.dtd">
<svg version="1.0" xmlns="http://www.w3.org/2000/svg"
 width="1024.000000pt" height="1024.000000pt" viewBox="0 0 1024.000000 1024.000000"
 preserveAspectRatio="xMidYMid meet">
<metadata>
Created by potrace 1.14, written by Peter Selinger 2001-2017
</metadata>
<g transform="translate(0.000000,1024.000000) scale(0.100000,-0.100000)"
fill="#000000" stroke="none">
<path d="M6256 9895 c-25 -7 -43 -8 -40 -3 3 4 0 8 -5 8 -6 0 -11 -4 -11 -8 0
-5 -10 -8 -22 -7 -13 1 -26 -3 -30 -9 -5 -7 -8 -7 -8 2 0 8 -5 10 -12 5 -7 -4
-15 -8 -18 -9 -17 -3 -128 -18 -142 -20 -10 -1 -20 -3 -23 -4 -3 -1 -13 -3
-22 -4 -10 -1 -24 -5 -32 -10 -10 -7 -12 -6 -6 3 6 10 3 11 -15 1 -12 -6 -28
-9 -36 -6 -8 3 -14 0 -14 -7 0 -8 -4 -6 -10 3 -7 12 -10 12 -10 1 0 -7 -6 -11
-15 -8 -8 4 -17 2 -20 -2 -3 -5 -14 -7 -25 -4 -12 3 -20 0 -20 -7 0 -10 -3
-10 -15 0 -10 8 -15 9 -15 2 0 -6 -7 -9 -15 -6 -9 4 -15 0 -15 -7 0 -11 -3
-11 -10 1 -5 8 -10 10 -10 3 0 -6 -11 -10 -25 -8 -14 1 -25 -1 -25 -6 0 -4 -8
-7 -17 -7 -23 1 -138 -18 -138 -22 0 -1 -9 -3 -20 -5 -48 -9 -73 -13 -120 -20
-27 -4 -54 -11 -60 -15 -5 -4 -20 -6 -32 -5 -13 1 -23 -3 -23 -8 0 -6 -3 -7
-6 -4 -4 3 -15 2 -25 -4 -14 -7 -19 -6 -19 3 0 8 -3 9 -8 3 -7 -10 -18 -14
-57 -20 -49 -8 -80 -17 -90 -25 -6 -5 -17 -5 -25 0 -9 5 -19 5 -26 -1 -7 -6
-25 -12 -41 -15 -15 -3 -35 -7 -43 -9 -8 -2 -21 -4 -28 -4 -7 -1 -10 -6 -6
-12 5 -8 1 -8 -14 0 -14 7 -23 8 -27 1 -4 -6 -11 -8 -16 -5 -5 4 -9 2 -9 -3 0
-6 -6 -10 -12 -9 -39 1 -69 -4 -64 -11 3 -5 -10 -8 -29 -7 -19 0 -31 -3 -28
-9 4 -5 -3 -7 -15 -4 -12 4 -22 2 -22 -4 0 -5 -8 -8 -17 -7 -31 3 -44 -1 -39
-10 3 -4 -6 -6 -19 -3 -14 2 -25 0 -25 -5 0 -5 -8 -10 -17 -10 -10 -1 -36 -4
-57 -6 -23 -3 -45 -12 -53 -23 -7 -10 -13 -12 -13 -6 0 10 -5 10 -22 1 -13 -7
-24 -12 -25 -11 -3 2 -5 2 -20 -3 -5 -1 -21 -5 -38 -9 -16 -4 -37 -10 -45 -13
-8 -3 -21 -8 -27 -10 -7 -1 -19 -5 -25 -7 -7 -2 -28 -7 -45 -11 -18 -4 -33
-11 -33 -15 0 -4 -14 -6 -31 -4 -18 2 -28 0 -24 -6 6 -10 -4 -12 -52 -13 -12
-1 -20 -5 -17 -9 5 -8 -5 -11 -38 -11 -10 0 -18 -4 -18 -9 0 -5 -4 -7 -9 -3
-5 3 -12 1 -15 -4 -5 -7 -55 -22 -72 -20 -3 0 -16 -7 -30 -16 -13 -9 -29 -13
-34 -10 -5 3 -11 1 -14 -4 -3 -4 -19 -11 -36 -14 -40 -9 -41 -9 -69 -23 -14
-7 -28 -11 -33 -8 -4 3 -8 0 -8 -5 0 -6 -11 -11 -25 -11 -14 0 -25 -5 -25 -12
0 -6 -3 -9 -6 -5 -4 3 -19 0 -35 -8 -15 -8 -37 -15 -49 -15 -11 0 -20 -4 -20
-10 0 -5 -11 -10 -25 -10 -14 0 -25 -4 -25 -10 0 -5 -6 -10 -14 -10 -7 0 -46
-14 -87 -31 -41 -17 -82 -31 -91 -32 -9 -1 -14 -5 -12 -9 3 -4 -2 -9 -10 -9
-35 -3 -67 -19 -60 -30 3 -5 -2 -6 -11 -3 -8 4 -22 1 -30 -6 -8 -7 -15 -9 -15
-4 0 5 -5 1 -11 -9 -6 -9 -15 -15 -20 -11 -5 3 -16 0 -24 -6 -8 -7 -15 -9 -15
-4 0 5 -4 3 -9 -4 -4 -7 -17 -14 -29 -15 -12 0 -24 -7 -27 -15 -3 -8 -12 -11
-20 -8 -8 3 -15 1 -15 -5 0 -6 -4 -7 -10 -4 -5 3 -10 2 -10 -3 0 -5 -18 -15
-40 -22 -22 -7 -40 -16 -40 -20 0 -7 -23 -17 -59 -25 -8 -2 -17 -8 -20 -13 -7
-10 -43 -26 -53 -24 -5 1 -8 -3 -8 -10 0 -6 -3 -9 -6 -5 -3 3 -23 -5 -44 -18
-21 -13 -40 -21 -44 -18 -3 3 -8 -2 -12 -11 -3 -9 -10 -14 -14 -11 -5 3 -15
-2 -24 -11 -9 -8 -20 -13 -24 -10 -5 3 -16 -4 -25 -15 -9 -10 -26 -19 -36 -19
-11 0 -24 -6 -28 -13 -4 -6 -33 -25 -63 -41 -30 -16 -59 -35 -63 -43 -4 -7
-16 -13 -26 -13 -10 0 -30 -11 -45 -25 -14 -13 -30 -25 -34 -26 -4 -1 -15 -4
-24 -7 -10 -2 -15 -9 -11 -14 3 -6 0 -9 -8 -6 -7 2 -23 -6 -35 -19 -11 -12
-24 -20 -27 -16 -4 3 -7 1 -7 -6 0 -7 -4 -9 -10 -6 -5 3 -10 2 -10 -4 0 -6
-11 -13 -25 -17 -14 -3 -22 -10 -19 -15 3 -5 -2 -9 -10 -9 -9 0 -16 -4 -16 -9
0 -5 -9 -11 -21 -14 -13 -4 -18 -10 -13 -18 4 -8 3 -10 -4 -5 -6 4 -20 -2 -31
-13 -11 -11 -22 -17 -25 -13 -3 3 -6 0 -6 -6 0 -6 -8 -13 -17 -16 -10 -3 -30
-16 -45 -29 -15 -13 -39 -32 -53 -43 -50 -36 -65 -51 -58 -58 4 -4 1 -4 -8 -1
-8 3 -24 -4 -36 -17 -31 -35 -61 -57 -67 -51 -3 4 -6 -1 -6 -10 0 -9 -4 -17
-10 -17 -10 0 -63 -46 -134 -115 -22 -22 -60 -57 -84 -77 -24 -21 -41 -38 -38
-38 3 0 -23 -28 -59 -62 -35 -34 -62 -65 -59 -70 3 -4 -2 -8 -10 -8 -9 0 -16
-3 -16 -7 0 -5 -25 -35 -55 -67 -30 -33 -51 -64 -48 -69 3 -6 2 -8 -3 -5 -11
6 -45 -28 -37 -36 4 -3 1 -6 -6 -6 -7 0 -9 -5 -5 -12 4 -7 3 -8 -4 -4 -7 4
-16 -2 -21 -17 -5 -13 -17 -27 -26 -31 -9 -3 -13 -10 -10 -16 3 -6 -1 -13 -9
-16 -9 -3 -16 -11 -16 -18 0 -6 -9 -18 -20 -26 -11 -8 -20 -20 -20 -27 0 -7
-5 -13 -11 -13 -5 0 -8 -4 -5 -8 3 -5 -4 -14 -14 -22 -10 -8 -17 -17 -14 -22
3 -4 0 -8 -5 -8 -6 0 -11 -7 -11 -15 0 -8 -4 -15 -9 -15 -5 0 -12 -8 -16 -19
-3 -10 -14 -29 -25 -41 -11 -12 -17 -27 -14 -31 3 -5 0 -9 -5 -9 -6 0 -11 -7
-11 -16 0 -8 -4 -13 -9 -10 -5 3 -12 -5 -15 -19 -4 -14 -11 -25 -17 -25 -6 0
-8 -4 -4 -9 3 -5 1 -12 -5 -16 -6 -4 -7 -11 -4 -17 4 -6 2 -8 -4 -4 -6 4 -16
-8 -23 -28 -7 -19 -17 -32 -23 -29 -5 4 -7 -1 -3 -10 3 -10 3 -17 -1 -17 -4 0
-20 -29 -36 -64 -17 -38 -34 -62 -40 -59 -6 4 -5 0 2 -9 11 -14 11 -18 -1 -25
-14 -8 -31 -42 -29 -55 1 -5 -3 -8 -9 -8 -5 0 -7 -4 -4 -10 3 -5 1 -10 -6 -10
-6 0 -9 -8 -6 -20 3 -13 -2 -25 -16 -35 -15 -11 -17 -15 -7 -16 10 0 8 -3 -5
-9 -13 -6 -15 -9 -5 -9 9 -1 11 -4 5 -9 -15 -10 -35 -59 -35 -83 0 -13 -4 -18
-12 -13 -8 5 -9 2 -5 -9 3 -10 2 -17 -4 -17 -6 0 -8 -4 -4 -9 3 -5 1 -12 -5
-16 -6 -4 -8 -11 -4 -16 3 -6 -2 -20 -13 -31 -10 -12 -13 -18 -6 -15 7 5 6 -3
-3 -22 -8 -17 -17 -38 -18 -48 -2 -10 -9 -38 -16 -63 -7 -25 -14 -52 -16 -60
-2 -8 -8 -33 -14 -55 -6 -22 -12 -47 -13 -55 -1 -8 -8 -26 -16 -39 -11 -20
-11 -22 1 -15 10 6 11 5 2 -7 -14 -18 -35 -100 -28 -111 3 -4 1 -8 -5 -8 -5 0
-10 -8 -10 -17 1 -10 -8 -50 -19 -90 -11 -40 -17 -74 -14 -77 3 -4 1 -6 -5 -6
-5 0 -10 -6 -10 -12 0 -7 -6 -53 -13 -103 -8 -49 -13 -94 -11 -99 1 -5 -4 -13
-11 -17 -10 -7 -10 -9 0 -9 9 0 10 -5 4 -17 -5 -10 -9 -37 -8 -60 0 -22 -2
-39 -6 -36 -5 2 -8 -11 -9 -29 -1 -37 -6 -122 -12 -184 -2 -22 -7 -46 -11 -52
-4 -7 -2 -12 5 -12 8 0 7 -5 -2 -17 -10 -11 -10 -14 -1 -9 6 4 12 2 12 -3 0
-6 -5 -11 -11 -11 -8 0 -8 -4 0 -14 9 -11 9 -15 -1 -19 -10 -4 -10 -6 1 -6 11
-1 11 -4 0 -18 -12 -15 -12 -16 1 -8 13 8 13 7 1 -8 -11 -14 -11 -17 0 -17 12
0 12 -2 0 -9 -9 -6 -10 -10 -2 -16 9 -5 9 -10 0 -21 -8 -10 -8 -18 0 -27 8
-10 7 -17 -1 -25 -9 -9 -9 -12 1 -12 10 0 11 -3 2 -14 -9 -10 -9 -16 -1 -21 8
-5 8 -10 0 -20 -8 -9 -8 -15 0 -20 7 -4 7 -12 0 -26 -8 -14 -7 -19 2 -19 10 0
10 -2 -1 -9 -9 -6 -10 -10 -2 -16 9 -5 9 -10 0 -21 -9 -11 -9 -14 1 -14 10 0
10 -3 1 -14 -9 -11 -9 -15 1 -19 10 -4 10 -6 -1 -6 -11 -1 -11 -4 -1 -16 7 -8
8 -15 3 -15 -5 0 -10 -7 -10 -15 0 -8 5 -15 10 -15 5 0 4 -7 -3 -15 -7 -8 -8
-15 -3 -15 5 0 9 -24 8 -54 0 -30 3 -53 6 -51 3 2 5 -15 5 -38 1 -23 4 -73 9
-112 5 -38 8 -76 6 -82 -1 -7 2 -13 6 -13 5 0 9 -19 10 -42 1 -24 4 -53 6 -64
8 -35 19 -98 19 -114 1 -8 4 -19 7 -25 4 -5 7 -25 7 -42 -1 -18 2 -33 5 -33 3
0 6 -6 7 -12 0 -7 3 -26 7 -43 4 -16 7 -38 8 -47 1 -10 4 -18 7 -18 3 0 7 -10
7 -22 3 -40 28 -129 35 -123 4 4 4 -2 1 -14 -3 -12 -1 -21 4 -21 5 0 10 -10
11 -22 3 -44 14 -88 21 -83 4 2 7 -9 6 -25 -1 -17 3 -30 8 -30 6 0 8 -3 4 -6
-3 -4 0 -19 9 -35 8 -16 12 -29 8 -29 -4 0 -2 -6 4 -12 6 -7 11 -16 11 -20 1
-5 1 -9 2 -10 0 -2 2 -10 4 -18 15 -62 113 -299 135 -326 8 -9 14 -19 12 -21
-5 -6 58 -132 68 -138 6 -4 8 -11 5 -16 -4 -5 -2 -9 3 -9 5 0 19 -24 33 -52
13 -29 27 -55 32 -56 4 -2 5 -7 2 -12 -3 -5 1 -15 9 -22 17 -18 51 -81 48 -90
-1 -5 2 -8 7 -8 5 0 14 -13 21 -30 7 -16 16 -30 20 -30 5 0 11 -14 15 -30 4
-17 12 -30 18 -30 7 -1 25 -28 42 -60 16 -33 33 -60 38 -60 4 0 5 -4 2 -10 -3
-5 -2 -10 4 -10 5 0 12 -8 16 -19 3 -10 17 -31 30 -45 13 -15 25 -29 26 -31 9
-36 13 -44 20 -39 5 3 9 0 9 -6 0 -13 59 -92 72 -98 5 -2 8 -10 8 -18 0 -9 5
-12 10 -9 6 3 10 0 10 -7 1 -20 134 -168 152 -168 6 0 9 -2 6 -5 -10 -11 458
-465 547 -531 50 -37 93 -72 97 -78 4 -6 8 -7 8 -3 0 5 7 1 16 -8 9 -9 51 -39
93 -67 42 -28 79 -56 83 -62 4 -6 8 -8 8 -4 0 5 32 -12 70 -37 39 -25 74 -45
79 -45 5 0 14 -7 21 -15 7 -8 16 -13 20 -10 5 3 10 2 12 -2 5 -11 66 -53 77
-53 5 0 11 -4 13 -8 3 -9 100 -56 136 -67 12 -3 22 -11 22 -16 0 -5 3 -8 8 -7
4 0 23 -6 42 -15 19 -8 38 -13 42 -11 5 3 8 0 8 -5 0 -6 6 -11 14 -11 7 0 31
-8 52 -17 22 -9 41 -17 44 -18 3 -1 23 -9 44 -18 22 -10 50 -20 63 -23 13 -4
23 -10 23 -15 0 -5 9 -9 20 -9 11 0 20 -4 20 -8 0 -4 10 -8 22 -9 11 -1 24 -6
27 -10 3 -4 13 -9 21 -11 8 -1 44 -12 80 -24 70 -22 88 -27 95 -28 3 0 19 -7
35 -15 17 -9 30 -13 30 -11 0 3 18 -1 40 -9 22 -8 40 -12 40 -10 0 3 11 0 25
-5 43 -16 217 -50 226 -44 5 3 9 0 9 -6 0 -6 10 -10 23 -9 12 2 31 0 42 -4 11
-3 43 -9 70 -12 71 -8 78 -10 94 -19 9 -6 12 -5 7 2 -7 12 26 10 56 -3 10 -4
24 -5 32 -2 8 3 17 1 20 -6 3 -9 5 -9 5 0 1 7 7 10 14 8 6 -2 35 -6 63 -8 28
-2 56 -7 62 -11 6 -3 14 -2 17 4 5 7 11 8 19 1 12 -10 41 -9 52 2 4 4 12 2 19
-3 13 -11 73 -8 94 4 9 6 12 5 8 -1 -5 -9 36 -12 168 -15 70 -2 140 5 152 14
7 5 14 5 18 -2 4 -7 12 -7 26 0 13 8 19 7 19 0 0 -7 6 -8 19 0 11 5 27 7 37 3
10 -4 15 -2 11 3 -3 5 12 9 34 8 22 0 39 4 39 10 0 7 3 7 8 1 9 -12 44 -16 36
-4 -3 5 17 9 45 9 27 0 52 4 56 9 3 6 19 8 35 6 17 -2 30 0 30 4 0 4 12 6 28
6 15 -1 32 1 37 4 11 6 24 9 70 16 17 3 37 7 46 8 10 2 25 9 35 17 11 9 15 10
10 3 -4 -7 -2 -13 3 -13 6 0 11 4 11 9 0 5 8 8 18 6 9 -1 23 3 31 9 8 6 16 10
18 9 1 -2 4 -3 6 -2 1 0 15 2 30 4 16 2 36 10 45 17 13 11 14 11 7 -2 -8 -13
-7 -13 8 -1 9 7 17 11 17 7 0 -3 16 0 35 8 19 8 35 12 35 9 0 -3 7 0 15 7 8 7
15 9 15 5 0 -4 12 0 26 10 15 9 23 12 20 6 -4 -6 -2 -11 3 -11 6 0 11 5 11 11
0 7 10 9 25 7 13 -3 22 -2 20 2 -4 6 24 19 55 24 3 1 19 6 35 13 17 6 43 14
58 17 15 4 25 11 22 16 -3 5 0 8 7 5 7 -3 30 3 50 14 21 10 35 14 31 7 -3 -6
3 -2 15 8 12 11 22 16 22 12 0 -4 10 -1 23 6 12 7 24 13 27 13 3 1 17 7 33 13
45 19 72 30 80 30 4 1 15 8 24 17 8 9 22 14 29 11 8 -3 14 -1 14 4 0 6 7 10
15 10 8 0 15 5 15 11 0 5 4 8 9 4 5 -3 12 -1 16 5 4 6 10 8 15 5 5 -3 13 2 18
11 5 9 11 14 13 12 5 -3 139 62 149 72 3 3 28 16 57 30 28 14 49 28 47 32 -3
4 2 5 10 2 9 -3 16 -1 16 5 0 6 7 11 15 11 8 0 15 5 15 10 0 6 3 9 8 9 21 -4
32 2 26 13 -5 8 -2 9 9 5 10 -3 17 -2 17 4 0 5 13 15 30 20 16 6 30 16 30 22
0 6 3 7 6 4 4 -4 15 3 25 15 11 11 19 17 19 12 0 -5 6 -2 13 7 13 18 12 17 45
25 12 4 22 13 22 21 0 8 4 12 8 9 5 -3 18 3 28 13 11 9 26 15 33 13 8 -3 11 0
7 7 -4 6 7 18 28 28 20 9 36 20 36 24 0 3 13 12 30 19 16 7 27 16 24 21 -3 5
1 9 9 9 8 0 22 9 32 20 10 11 20 18 22 16 4 -4 16 6 88 70 13 12 26 19 29 16
3 -3 6 0 6 6 0 7 6 12 13 12 7 0 18 9 25 21 7 12 16 19 19 16 3 -3 20 9 39 26
19 18 51 47 70 64 19 18 36 33 38 33 3 0 22 16 43 35 21 20 50 47 64 60 15 13
30 21 34 17 4 -4 5 -2 4 3 -4 13 52 75 68 75 7 0 13 8 13 17 0 9 3 14 6 10 7
-7 54 41 54 56 0 6 3 7 7 4 9 -9 34 13 27 24 -3 5 1 9 9 9 8 0 18 7 21 16 3 8
10 12 16 9 5 -3 10 3 10 14 0 11 5 23 12 27 7 5 8 3 3 -6 -4 -7 17 12 46 41
30 30 53 56 52 58 -2 2 6 11 17 18 11 8 18 19 14 24 -3 5 -2 8 3 7 4 -2 27 16
51 40 23 23 39 42 35 42 -4 0 3 7 15 16 12 8 19 20 16 26 -4 6 -2 8 4 4 6 -3
19 7 28 24 10 16 26 33 36 36 11 3 15 11 11 21 -4 11 -2 14 5 9 11 -6 17 5 13
27 0 4 2 6 6 5 5 -2 23 12 41 30 18 17 30 32 26 32 -3 0 -1 6 5 13 6 8 8 17 4
21 -4 4 0 4 10 0 12 -4 17 -1 17 10 0 9 7 16 16 16 8 0 13 4 10 9 -3 5 1 14 9
21 8 7 12 16 9 21 -3 5 -2 8 3 7 4 -2 18 7 31 19 12 13 19 23 15 23 -5 0 -1 6
8 13 8 7 18 20 22 30 4 11 12 15 18 11 7 -4 9 -3 6 3 -4 6 7 25 23 42 17 17
28 31 24 31 -3 0 1 6 8 14 7 7 20 24 28 36 8 12 25 34 37 48 13 15 23 30 23
34 0 4 10 16 22 28 12 11 19 20 15 20 -4 0 1 9 11 19 32 37 42 50 42 61 0 5 5
10 10 10 6 0 10 5 10 11 0 7 12 23 28 37 15 14 26 27 25 29 -7 8 -2 33 6 29 5
-3 16 9 24 27 14 29 26 45 67 94 5 7 10 16 10 21 0 4 9 18 20 30 12 12 17 22
13 22 -4 0 2 7 13 16 10 8 12 12 4 8 -10 -5 -9 -1 3 12 10 10 33 44 52 74 19
30 39 60 45 67 5 7 10 15 10 19 0 4 11 22 25 40 14 18 25 36 25 39 0 4 9 20
21 36 11 16 17 34 13 40 -4 8 -3 9 4 5 7 -4 12 -1 12 8 0 9 5 16 10 16 6 0 10
7 10 15 0 8 5 15 10 15 6 0 10 6 10 14 0 8 6 21 13 28 7 7 20 28 28 46 7 17
18 32 22 32 5 0 5 5 2 10 -3 6 -1 10 5 10 7 0 9 7 6 16 -3 8 -2 13 3 10 7 -5
20 12 26 34 0 3 11 20 22 39 12 19 19 39 16 44 -3 6 -1 7 5 3 10 -6 25 21 19
35 -1 3 5 13 13 22 30 33 41 47 35 47 -3 0 1 10 10 23 8 13 12 27 8 30 -3 4
-2 7 4 7 11 0 40 59 35 73 -1 5 2 6 7 3 5 -3 17 13 26 37 9 23 20 44 23 47 8
6 65 121 66 133 1 4 8 12 16 17 8 5 11 10 6 10 -5 0 -3 6 3 13 6 8 8 17 4 20
-3 4 -1 7 6 7 7 0 9 5 6 10 -3 6 1 13 9 16 9 3 14 10 11 14 -3 5 2 16 11 24 8
9 13 16 9 16 -3 0 0 10 7 23 7 12 11 25 10 30 -1 4 3 7 9 7 5 0 8 4 5 9 -3 5
1 14 9 21 8 7 12 16 9 21 -3 5 0 9 6 9 6 0 8 5 5 10 -3 6 -1 10 5 10 7 0 10 7
6 15 -3 8 -1 15 4 15 5 0 12 11 16 25 3 14 11 22 16 19 6 -4 8 1 4 14 -4 13
-1 22 9 26 8 3 15 17 15 31 0 14 5 25 11 25 6 0 8 7 5 16 -3 8 -2 12 4 9 6 -3
10 -2 10 3 0 5 8 27 17 48 9 22 16 42 15 47 -1 4 3 7 9 7 5 0 7 5 4 10 -3 6
-1 10 4 10 6 0 10 3 9 8 -1 4 3 17 10 30 7 12 10 22 7 22 -4 0 1 7 10 16 9 9
14 21 12 28 -2 6 2 17 10 24 7 8 11 18 8 23 -4 5 -1 9 5 9 6 0 9 4 6 9 -4 5
-1 11 4 13 6 2 12 10 14 18 5 34 18 60 28 60 6 0 9 3 5 6 -7 8 13 64 23 64 5
0 7 11 6 25 -2 13 1 22 5 19 8 -5 13 10 10 29 -1 4 5 10 13 13 8 3 12 12 9 20
-3 8 0 14 6 14 6 0 10 3 10 8 -1 4 0 10 1 15 1 4 3 10 5 15 14 50 18 61 24 57
4 -2 8 1 9 8 2 23 8 43 31 92 13 28 24 57 26 65 2 8 4 17 5 20 1 3 2 9 1 13
-1 4 5 10 12 13 8 3 13 16 11 30 -1 13 1 22 4 20 4 -2 14 11 23 30 9 18 12 31
8 28 -5 -3 -9 0 -9 5 0 6 4 11 9 11 5 0 12 7 15 16 3 8 2 12 -4 9 -6 -3 -7 1
-4 9 3 9 10 16 16 16 5 0 7 4 3 9 -3 5 -2 12 3 15 4 2 7 25 7 50 -1 25 3 46 8
46 4 0 5 5 1 12 -9 14 -11 68 -4 68 3 0 6 9 6 20 0 11 -5 20 -10 20 -6 0 -6 4
0 10 6 6 8 31 4 60 -4 28 -4 50 -1 50 3 0 6 22 6 49 0 27 -3 47 -6 45 -4 -2
-5 17 -4 41 2 25 0 45 -4 45 -3 0 -7 33 -8 73 -3 110 -7 147 -18 147 -5 0 -3
5 5 10 8 5 10 10 5 10 -6 0 -12 10 -12 23 -3 42 -9 82 -14 92 -3 6 -6 25 -8
44 -1 19 -6 40 -11 46 -6 7 -5 16 2 23 9 9 9 12 0 12 -7 0 -12 10 -12 23 0 13
-6 29 -12 36 -11 11 -10 12 1 6 11 -6 11 -3 -2 14 -8 13 -13 30 -10 37 3 8 0
21 -7 29 -7 8 -10 24 -7 35 3 11 1 20 -5 20 -6 0 -7 7 -4 16 3 8 2 12 -4 9 -6
-3 -10 5 -10 19 0 14 -4 27 -9 31 -6 3 -8 14 -6 25 2 11 -1 20 -7 20 -5 0 -8
6 -5 14 3 8 2 16 -3 18 -5 2 -11 12 -13 23 -2 11 -9 34 -16 50 -7 17 -12 32
-13 35 0 3 -3 10 -8 15 -4 6 -11 25 -15 43 -3 17 -11 32 -16 32 -5 0 -9 9 -9
19 0 11 -4 21 -10 23 -5 2 -11 15 -12 30 -1 15 -6 25 -10 22 -4 -3 -12 14 -19
36 -7 22 -16 40 -21 40 -5 0 -6 5 -3 10 3 6 1 10 -5 10 -6 0 -8 5 -5 10 3 6 1
10 -4 10 -6 0 -11 7 -11 16 0 8 -5 12 -10 9 -6 -4 -10 -3 -9 2 4 22 -3 41 -21
61 -12 12 -18 22 -16 22 5 0 -34 63 -53 86 -6 7 -7 15 -4 18 4 3 0 6 -9 6 -8
0 -15 6 -15 13 0 16 -44 77 -55 77 -5 0 -6 5 -3 11 4 6 -2 17 -14 25 -12 9
-19 20 -16 25 4 5 -2 9 -11 9 -10 0 -14 3 -11 6 4 4 -3 15 -15 25 -11 11 -17
19 -12 19 5 0 -6 13 -23 29 -18 16 -29 31 -26 34 3 3 -4 12 -16 19 -12 7 -21
18 -21 24 0 6 -11 19 -24 30 -14 10 -22 22 -19 27 3 6 2 7 -4 4 -11 -7 -80 70
-75 85 1 5 -2 7 -8 3 -5 -3 -10 -1 -10 5 0 6 -4 8 -10 5 -5 -3 -10 0 -11 7 0
7 -20 29 -43 48 -24 19 -41 38 -39 43 2 4 -2 7 -10 7 -8 0 -18 7 -21 16 -3 8
-10 12 -16 9 -5 -3 -10 1 -10 9 0 9 -4 16 -9 16 -5 0 -29 20 -54 44 -25 24
-48 42 -50 39 -3 -2 -14 8 -25 22 -14 17 -22 21 -25 13 -3 -8 -6 -6 -6 5 -1 9
-6 17 -11 17 -6 0 -21 11 -34 25 -13 13 -25 22 -28 20 -3 -3 -17 6 -32 20 -15
14 -29 25 -31 25 -3 0 -28 18 -57 40 -29 22 -57 40 -62 40 -5 0 -17 9 -27 21
-9 11 -20 20 -23 21 -23 0 -46 13 -46 24 0 8 -8 14 -19 14 -10 0 -24 7 -31 15
-7 8 -16 13 -20 10 -5 -3 -10 -1 -12 4 -1 5 -10 11 -18 13 -8 2 -23 11 -34 20
-10 10 -23 15 -28 12 -4 -3 -8 -1 -8 5 0 11 -56 41 -77 41 -8 0 -12 4 -9 9 3
4 -13 14 -35 21 -22 8 -43 19 -47 26 -4 7 -9 13 -12 12 -16 0 -60 15 -60 21 0
8 -71 36 -82 33 -5 -1 -8 2 -8 6 0 5 -16 14 -35 22 -19 8 -35 17 -35 22 0 4
-7 5 -15 2 -8 -4 -15 -1 -15 6 0 7 -7 10 -15 6 -8 -3 -15 -1 -15 4 0 6 -9 10
-20 10 -11 0 -20 5 -20 11 0 5 -4 7 -10 4 -5 -3 -10 -1 -10 5 0 7 -7 10 -15 6
-8 -3 -15 -1 -15 4 0 6 -3 9 -7 8 -14 -3 -53 13 -53 22 0 5 -9 7 -20 5 -11 -2
-20 0 -20 6 0 5 -9 9 -19 9 -11 0 -23 5 -26 11 -4 6 -13 8 -21 5 -8 -3 -14 -2
-14 3 0 4 -27 16 -60 27 -33 10 -60 22 -60 25 0 3 -6 6 -12 7 -23 2 -43 7 -55
15 -7 5 -17 5 -23 2 -5 -3 -10 -1 -10 5 0 6 -4 8 -10 5 -5 -3 -10 -2 -10 3 0
8 -6 10 -50 14 -11 1 -20 6 -20 10 0 4 -9 8 -21 8 -11 0 -18 4 -15 8 3 4 -8 7
-25 6 -16 -1 -29 2 -29 6 0 4 -7 11 -16 14 -10 4 -13 2 -8 -7 6 -9 4 -9 -8 1
-15 12 -47 23 -75 24 -7 1 -13 5 -13 9 0 4 -9 6 -20 4 -11 -2 -20 -1 -20 4 0
7 -119 37 -132 33 -5 -1 -8 3 -8 9 0 6 -9 9 -20 6 -11 -3 -20 -1 -20 5 0 6 -7
8 -15 5 -8 -4 -17 -2 -20 4 -4 5 -11 7 -16 4 -5 -4 -9 -2 -9 3 0 5 -11 8 -25
7 -14 -2 -27 1 -31 6 -3 5 -10 7 -15 4 -5 -4 -9 0 -9 7 0 9 -3 9 -10 -2 -6
-10 -10 -11 -10 -2 0 6 -3 11 -7 10 -12 -2 -66 12 -87 23 -13 7 -16 7 -11 0 3
-6 1 -11 -4 -11 -6 0 -11 5 -11 11 0 6 -9 9 -20 6 -11 -3 -20 -2 -20 2 0 4 -6
8 -12 9 -7 1 -29 4 -48 7 -19 3 -43 7 -52 8 -10 1 -18 6 -18 11 0 5 -2 7 -5 4
-3 -3 -27 -1 -53 4 -69 15 -175 16 -226 3z"/>
</g>
</svg>
