<?xml version="1.0" encoding="UTF-8"?>
<!-- Created with Inkscape (http://www.inkscape.org/) -->
<svg width="780" height="780" version="1.1" viewBox="0 0 780 780" xmlns="http://www.w3.org/2000/svg">
    <g>
        <path
            d="m489.76 45.741c-22.861-0.25377-45.38 4.2566-67.928 7.3526-82.217 12.791-165.08 33.581-239.12 73.658-40.289 21.227-75.573 51.552-103.47 87.476-19.621 25.605-34.663 55.012-43.029 85.999-7.6969 26.195-14.241 53.048-15.571 80.252-1.589 22.24-1.7931 44.458 1.3852 66.598 3.8344 28.984 10.439 57.619 20.894 84.806 11.74 25.853 25.238 50.984 41.229 74.57 12.222 16.69 27.705 30.964 42.064 45.472 18.207 18.655 40.033 32.988 62.401 45.907 17.868 9.7726 37.125 16.731 56.186 23.778 22.074 6.7606 44.901 10.676 67.577 12.529 25.616 0.45441 51.35-0.0309 76.747-5.3933 61.648-12.115 118.66-41.674 166.44-82.161 23.752-21.943 47.216-44.743 66.923-70.303 44.368-55.872 78.673-119.98 107.4-185.42 10.26-24.097 20.711-48.203 28.805-73.13 3.8152-13.692 0.55338-28.46-0.79614-41.864-4.204-29.906-10.546-59.863-22.947-87.931-14.74-34.184-37.626-65.584-67.112-88.124-41.775-32.233-94.178-47.983-146.19-52.797-10.815-0.96198-21.319-1.3417-31.892-1.2732z"
            fill="#f5f7f6" stroke-width="18.385" />
        <path
            d="m309.03 734.98c-28.551-2.6274-52.894-9.5383-72.5-16.802-10.829-4.0121-26.844-10.262-36.617-14.694-10.704-4.8549-35.836-18.883-50.383-29.816-10.096-7.5883-17.439-14.911-33.57-31.268-21.075-21.369-27.441-28.171-35.634-40.371-13.947-20.77-34.573-59.027-40.401-75.207-4.1568-11.539-10.615-33.155-13.65-46.708-2.8176-12.582-5.3331-32.814-6.7234-48.085-2.1413-23.518 1.3817-55.935 5.6506-84.25 1.8814-12.479 11.485-48.568 16.865-64.75 12.222-36.76 31.213-64.968 59.887-94.667 22.421-23.221 44.279-41.757 68.654-56.125 19.017-11.21 24.356-13.223 40.836-20.804 69.005-31.746 144.58-53.111 248.31-66.548 15.575-2.0175 22.192-0.16368 33.688-0.09574 26.707 0.15783 56.621 5.8278 84.174 12.834 19.085 4.8526 34.16 9.9847 50.672 17.994 22.714 11.018 38.366 23.294 55.914 40.137 26.588 25.52 44.697 51.531 58.411 90.929 7.9428 22.819 14.305 54.632 17.065 84.746 1.8728 20.435 3.5612 20.004-6.458 46.29-23.32 61.18-53.84 117.24-82.503 165.17-18.149 30.348-39.774 61.548-61.396 87.146-13.666 16.18-40.278 42.52-54.79 54.846-24.892 21.143-45.981 39.699-72.75 53.332-25.421 12.946-43.339 18.416-71 25.892-26.532 7.1704-47.672 11.307-74.75 11.9-9.9 0.21676-21.5-0.52-27-1.0262zm54.318-87.922c6.1028-1.8207 11.789-6.4117 14.709-11.875 2.0317-3.8018 2.262-5.9213 2.721-25.047 0.41317-17.216 0.76543-21.027 2.0014-21.652 0.825-0.41728 6.0757-2.1914 11.668-3.9426 5.5925-1.7511 13.588-5.186 17.769-7.6331 4.1804-2.4471 10.792-7.4594 14.692-11.139 12.068-11.384 19.627-23.714 24.488-39.943 2.1523-7.1858 2.7206-11.452 3.1037-23.297 0.38419-11.88 0.11223-16.216-1.5053-24-3.8481-18.518-11.667-34.369-23.86-48.373-3.7702-4.3302-7.2812-8.4586-7.8021-9.1743-0.67481-0.92711 0.26673-2.6181 3.2747-5.8814 5.6062-6.082 11.645-15.545 14.09-22.08 1.0907-2.9151 2.738-9.0262 3.6608-13.58 1.262-6.2281 1.5457-11.27 1.145-20.346-0.63075-14.287-3.1027-24.633-8.666-36.271-5.1875-10.852-10.98-19.29-18.989-27.659-8.1349-8.5013-15.922-14.571-26.452-20.621l-8.1163-4.6623-0.5-22.926c-0.45116-20.687-0.70878-23.378-2.6373-27.549-4.7989-10.379-14.893-17.576-26.056-18.578-3.1936-0.28683-7.7001-0.00921-10.014 0.61692-5.7142 1.5459-12.269 6.7456-15.292 12.131-2.3926 4.2621-2.5139 5.2988-2.8243 24.143-0.22321 13.551-0.69087 19.976-1.5 20.61-1.533 1.201-36.435-2.3549-38.299-3.9021-1.0756-0.89268-1.3777-5.1047-1.3821-19.27-0.00306-9.9702-0.44744-19.718-0.9875-21.662-1.5761-5.6732-6.5283-12.598-11.705-16.367-6.0358-4.3944-15.553-7.1105-21.878-6.2436-2.5503 0.34956-6.8932 1.8636-9.6509 3.3645-5.1986 2.8294-8.7202 6.6337-10.909 11.785-0.81352 1.9143-1.47 10.215-1.8186 22.996l-0.54557 20-8.5209-0.35023c-4.6865-0.19263-10.43 0.16381-12.763 0.79208-5.6875 1.5315-10.692 6.1302-12.901 11.855-1.7226 4.4642-1.8149 11.925-1.8149 146.7 0 78.1 0.35819 144.09 0.79597 146.65s2.1539 6.698 3.8136 9.2037c3.937 5.9438 12.179 10.207 21.641 11.192 3.7122 0.38673 7.5018 1.0946 8.4214 1.573 1.4536 0.75621 1.7148 3.3198 2 19.626 0.29082 16.631 0.57025 19.28 2.4653 23.379 5.0246 10.867 15.094 17.768 27.189 18.633 5.5124 0.39441 7.7108 0.06908 11.999-1.7756 6.181-2.659 12.302-9.1249 13.999-14.787 0.69043-2.3044 1.1823-10.69 1.1913-20.309 0.00842-9.0112 0.41221-17.011 0.89731-17.777 0.75081-1.1857 3.6116-1.1291 19.235 0.38026 10.094 0.97521 18.915 2.2196 19.603 2.7653 0.91047 0.72268 1.25 5.5272 1.25 17.688 0 18.639 1.0437 24.058 5.9333 30.808 5.3406 7.3724 16.031 13.102 24.635 13.203 2.2377 0.02626 6.2877-0.61433 9-1.4235zm-64.528-118.56c-26.103-2.7049-48.04-5.1409-48.75-5.4133-1.0429-0.4002-1.2905-21.021-1.2905-107.47 0-58.835 0.3375-107.18 0.75-107.43 0.4125-0.25013 22.125 1.7205 48.25 4.3791 29.995 3.0524 50.384 5.5857 55.325 6.8739 4.3035 1.122 10.142 3.2874 12.974 4.8119 6.2976 3.3898 11.936 8.8514 14.669 14.209 3.535 6.9292 5.2872 16.65 4.7562 26.385-0.39015 7.1523-1.0276 9.8905-3.368 14.467-2.0993 4.1049-4.1174 6.4054-7.3984 8.4339-2.4814 1.5341-7.1024 3.3327-10.269 3.9969-4.725 0.99108-9.2025 0.89775-24.973-0.52053-26.049-2.3426-32.187-2.2488-37.16 0.56793-2.1694 1.2288-4.8694 3.8088-6 5.7336-1.7112 2.913-2.0507 5.1753-2.0257 13.499 0.02471 8.2314 0.40543 10.707 2.1527 14 1.1675 2.2 3.179 4.9599 4.47 6.133 5.4556 4.9576 10.468 6.1959 33.847 8.3622 17.072 1.5818 24.667 2.8707 33 5.5999 13.47 4.4116 21.871 12.723 26.187 25.905 1.8318 5.5958 2.2883 9.2067 2.2758 18-0.01216 8.536-0.51563 12.609-2.2477 18.184-3.6415 11.72-10.925 19.575-21.748 23.454-10.095 3.6183-20.591 3.3086-73.426-2.1665z"
            fill="#f7931a" />
        <path
            d="m308.52 744.32c-28.551-2.6274-54.894-8.0383-74.5-15.302-10.829-4.0121-30.344-12.012-40.117-16.444-10.704-4.8549-36.336-20.883-50.883-31.816-10.096-7.5883-18.939-15.661-35.07-32.018-21.075-21.369-27.441-28.671-35.634-40.871-13.947-20.77-35.383-60.82-41.212-77-4.1568-11.539-10.555-33.862-13.59-47.415-2.8176-12.582-6.1009-34.314-7.4912-49.585-2.1413-23.518-0.80029-56.185 3.4687-84.5 1.8814-12.479 11.088-48.818 16.469-65 12.222-36.76 34.334-72.693 63.009-102.39 22.421-23.221 44.175-40.696 68.551-55.064 19.017-11.21 28.52-16.24 45-23.822 69.005-31.746 146.27-51.957 250-65.394 15.575-2.0175 25.004-2.6966 36.5-2.6287 26.707 0.15783 57.947 4.2823 85.5 11.288 19.085 4.8526 37.489 11.502 54 19.512 22.714 11.018 42.048 24.397 59.596 41.24 26.588 25.52 46.611 57.773 60.325 97.172 7.9428 22.819 14.909 57.271 17.668 87.385 1.8728 20.435 1.4399 22.918-8.5793 49.204-23.32 61.18-51.615 120.57-80.278 168.5-18.149 30.348-41.645 63.401-63.267 89-13.666 16.18-40.453 43.278-54.964 55.604-24.892 21.143-50.231 38.199-77 51.832-25.421 12.946-44.839 20.416-72.5 27.892-26.532 7.1704-49.922 10.557-77 11.15-9.9 0.21676-22.5-0.02-28-0.52615zm44.644-46.976c39.3-3.8913 75.423-15.781 107.17-35.274 23.72-14.563 44.357-32.179 62.873-53.667 21.381-24.812 40.614-58.921 51.052-90.534 8.7146-26.394 12.377-43.763 14.759-70 2.1713-23.917 0.65438-54.669-3.9267-79.603-9.5549-52.006-33.436-102.3-67.118-141.35-11.4-13.217-28.15-29.359-39.955-38.506-18.715-14.502-40.323-27.538-59-35.597-21.191-9.1428-40.391-14.949-60.803-18.389-28.053-4.7268-52.93-5.0403-80.494-1.0145-39.487 5.7674-77.366 21.284-110.66 45.331-26.2 18.923-51.21 45.803-68.568 73.695-8.3813 13.468-19.321 35.539-24.252 48.93-8.7023 23.632-13.734 43.789-16.851 67.5-2.3845 18.14-2.4058 56.292-0.0413 74 5.8617 43.899 19.272 82.888 40.931 119 13.325 22.217 28.855 41.67 48.345 60.555 13.468 13.05 22.948 20.61 40.105 31.976 36.251 24.018 76.566 38.45 119.79 42.882 11.75 1.2049 34.787 1.235 46.644 0.06096z"
            fill="#b3475f" />
    </g>
</svg>