<svg id="icon" width="21" height="21" version="1.1" viewBox="0 0 2641.273 4353.323" xmlns="http://www.w3.org/2000/svg">
    <style>
        .color {
            stroke: #4D4D4D;
            fill: #4D4D4D;
        }
    </style>
    <g class="color" id="decoration" transform="translate(782.837 1624.657)" fill="none" stroke-linecap="round"
        stroke-linejoin="round" stroke-width="560">
        <path d="M-100.99-903.99v-504" id="path3" style="stroke-width:433.333;stroke-dasharray:none" />
        <path d="M760.343-903.99v-504" id="path4" style="stroke-width:433.333;stroke-dasharray:none" />
        <path d="M-100.99 2512v-504" id="path5" style="stroke-width:433.333;stroke-dasharray:none" />
        <path d="M760.343 2512v-504" id="path6" style="stroke-width:433.333;stroke-dasharray:none" />
    </g>
    <path class="color"
        d="M217.47 3891.658q-85.942 0-133.689-33.423-42.971-28.647-57.295-85.943-14.324-62.07-14.324-133.689V802.479q0-71.62 14.324-124.14 19.098-57.296 62.07-85.944 47.746-33.422 133.69-33.422h1332.118q267.379 0 467.913 119.365 205.309 119.366 319.9 324.675 114.59 205.308 109.816 448.814 4.774 124.14-28.648 243.506-33.422 119.365-100.267 224.407-62.07 100.267-157.562 167.111 128.914 81.169 219.632 210.084 90.718 128.914 138.464 286.477 47.746 157.562 47.746 329.449-4.774 205.308-76.394 386.744-71.619 176.66-205.308 310.35-133.69 133.69-310.35 210.084-176.661 71.619-377.196 71.619zm224.408-410.617h1112.486q186.21 0 319.9-71.62 133.69-71.62 205.309-210.083 71.619-138.464 71.619-338.998 0-171.886-47.746-276.928-47.747-105.042-128.915-157.563-81.169-57.295-176.661-81.168-90.718-23.873-181.436-23.873-85.943-4.775-157.562-4.775H1167.62q-95.492 0-138.464-47.746-42.971-47.746-42.971-152.788 0-100.267 42.971-143.238 47.746-42.972 143.239-42.972h291.252q76.394 0 171.886-4.775 95.492-4.774 186.21-38.197 95.492-33.422 152.788-124.14 62.07-95.492 62.07-267.378 0-267.38-143.239-391.52-143.238-128.914-472.687-128.914H441.878z"
        id="text1"
        style="font-size:4774.62px;font-family:Fredoka;-inkscape-font-specification:Fredoka;stroke-width:24.8678"
        transform="scale(1.02235 .97813)" aria-label="B" />
</svg>