<svg xmlns="http://www.w3.org/2000/svg" width="224px" height="28.469px" viewBox="0 0 144.443 18.374"><path d="M34.053 31.825q-1.778.487-2.71 1.376-.931.889-.931 1.968 0 .953.783 1.736.804.762 1.757.762.72 0 .995-.297.275-.317.275-1.1v-4.318q0-.17-.17-.127zm-.89 7.683q-1.968 0-3.428-1.27-1.44-1.291-1.44-3.069 0-1.8 1.482-3.26 1.503-1.481 4.254-2.137.19-.043.19-.233v-3.07q0-.19-.19-.19h-4q-.36 0-.635-.254-.254-.275-.254-.635t.254-.635q.275-.275.635-.275h4q.19 0 .19-.19v-1.503q0-.445.297-.741.318-.318.762-.318.445 0 .741.318.318.296.318.74v1.503q0 .19.19.19h3.874q.36 0 .635.276.275.275.275.635t-.275.635q-.276.254-.635.254h-3.874q-.19 0-.19.19v2.773q0 .149.19.149.445-.043 1.397-.043 3.154 0 5.059 1.44 1.926 1.439 1.926 3.429 0 4.53-5.038 5.46-.402.085-.762-.148-.338-.232-.444-.656-.085-.38.127-.698.233-.318.614-.402 3.323-.678 3.323-3.45 0-1.186-1.312-2.075-1.313-.889-3.493-.889-.952 0-1.397.042-.19 0-.19.212v4.72q0 1.778-.72 2.477-.699.698-2.455.698zm11.092-15.113q1.249 1.588 2.244 3.07.211.338.127.74-.085.381-.424.614-.338.212-.72.127-.36-.085-.592-.423-.953-1.46-2.138-2.942-.254-.297-.233-.699.043-.402.36-.635.318-.254.72-.212.402.043.656.36zM64.892 36.27q-.19-5.927-2.264-10.753-.17-.402 0-.783.169-.402.571-.53.423-.147.847.043.423.19.614.593 2.264 4.974 2.455 11.45.021.467-.318.784-.317.318-.783.318-.465 0-.783-.318-.317-.339-.339-.804zm-10.138 3.344q-1.736 0-3.197-2.413-1.46-2.413-1.46-5.842 0-3.175.72-6.265.105-.466.508-.72.402-.275.867-.212.424.043.657.403.254.36.148.783-.678 3.005-.678 6.011 0 2.54.868 4.297.868 1.736 1.736 1.736.529 0 1.355-1.016.825-1.038 1.672-2.964.169-.423.571-.592.424-.17.826-.022.423.17.614.593.19.402.02.804-1.058 2.562-2.518 4-1.44 1.419-2.71 1.419zm20.552-5.503q-2.01-1.397-2.497-1.926-.487-.53-.487-1.461 0-.974.508-1.524.529-.55 2.603-1.905 3.239-2.074 6.88-4.89.36-.275.804-.232.466.042.762.38.296.34.254.784-.042.423-.402.698-3.683 2.858-6.922 4.932-1.27.826-1.608 1.122-.34.296-.34.635 0 .318.297.614.318.296 1.46 1.058 3.895 2.646 7.769 5.885.339.296.36.72.02.444-.297.761-.338.339-.804.339-.466.021-.825-.275-3.726-3.09-7.515-5.715zm18.987-.635q-.423-.106-.656-.445-.233-.36-.148-.762.36-2.138.72-4.614.063-.445.423-.72.36-.296.825-.254.445.021.72.381.275.339.211.783-.338 2.35-.508 3.366 0 .042.022.042h.042q1.376-.995 3.196-1.608 1.842-.614 3.493-.614 6.032 0 6.032 4.868 0 2.815-2.35 4.318-2.328 1.503-6.857 1.503-1.63 0-3.662-.17-.402-.02-.678-.338-.275-.318-.232-.741.02-.402.317-.656.318-.254.72-.212 2.243.212 3.535.212 3.302 0 4.995-1.016 1.714-1.016 1.714-2.9 0-2.963-3.873-2.963-1.291 0-2.942.592-1.651.572-3.239 1.609-.889.572-1.82.339zm2.815-10.562q3.98.444 7.853.508.402 0 .656.275.275.275.275.677t-.275.677q-.275.276-.677.276-3.98-.022-8.128-.53-.402-.042-.635-.338-.212-.318-.17-.72.043-.402.36-.635.339-.233.741-.19zm16.531 5.058q-.402 0-.698-.296-.297-.296-.297-.72 0-.423.276-.698.296-.296.72-.296h2.412q.19 0 .19-.191v-2.434q0-.445.318-.762.318-.318.762-.318.445 0 .762.318.339.317.339.762v2.434q0 .19.17.19h6.413q.19 0 .19-.19v-2.37q0-.487.318-.805.338-.339.804-.339.487 0 .804.339.339.339.339.804v2.371q0 .19.19.19h2.414q.423 0 .698.297.296.275.296.698 0 .424-.296.72t-.698.296h-2.413q-.191 0-.191.17v1.1q0 4.953-2.074 7.303-2.075 2.328-7.07 2.963-.423.043-.783-.233-.339-.254-.423-.677-.085-.402.148-.72.254-.338.656-.38 4.19-.551 5.736-2.329 1.545-1.778 1.545-5.927v-1.1q0-.17-.19-.17h-6.414q-.17 0-.17.17v3.302q0 .444-.338.762-.317.317-.762.317-.444 0-.762-.317-.317-.318-.317-.762v-3.302q0-.17-.19-.17zm35.285-1.375q.445.02.74.338.297.318.276.762-.275 5.652-2.54 8.319-2.244 2.646-7.302 3.429-.403.063-.741-.17-.318-.232-.424-.656-.084-.402.149-.72.232-.338.635-.402 4.318-.74 6.096-2.878 1.799-2.16 2.032-7.028.02-.423.338-.72.318-.296.741-.274zm-11.515 5.524q-.529-2.117-.952-3.64-.106-.403.106-.741.211-.36.635-.466.423-.085.783.148.38.212.508.635.593 2.074.974 3.62.105.402-.127.783-.233.36-.657.465-.423.085-.804-.148-.36-.233-.466-.656zm6.562-.063q-.212.36-.635.465-.423.106-.804-.127-.381-.233-.487-.656-.55-2.18-.995-3.81-.106-.402.106-.762.233-.36.656-.466.423-.105.804.149.403.232.508.656.72 2.73.974 3.767.106.424-.127.784zm26.903-8.361q.339-.318.804-.275.466.042.762.38.318.318.297.784-.34 7.07-3.154 10.414-2.815 3.344-9.165 4.36-.445.064-.826-.19-.36-.254-.444-.699-.085-.402.148-.74.254-.36.677-.445 5.588-.953 7.895-3.747 2.329-2.815 2.646-9.08.021-.466.36-.762zm-13.483 6.752q-.487-1.969-1.291-4.89-.127-.423.105-.804.233-.381.678-.487.465-.084.846.148.403.233.53.678.952 3.365 1.333 4.89.106.444-.148.846-.233.38-.677.487-.466.106-.868-.148-.402-.254-.508-.72zm7.874-.106q-.233.402-.699.487-.465.085-.868-.17-.402-.253-.508-.72-.55-2.243-1.333-5.1-.127-.445.106-.826.254-.38.698-.487.466-.105.868.149.423.232.55.698.762 2.752 1.334 5.101.106.466-.148.868z" aria-label="おいくらサッツ" style="font-weight:500;font-size:21.1667px;font-family:'Rounded Mplus 1c';-inkscape-font-specification:'Rounded Mplus 1c, Medium';display:inline;fill:#4D4846;stroke-width:0.264583" transform="translate(-28.295 -21.728)"/></svg>