<!--?xml version="1.0" encoding="utf-8"?-->
<!-- Generator: Adobe Illustrator 15.1.0, SVG Export Plug-In . SVG Version: 6.00 Build 0)  -->

<svg version="1.1" id="_x32_" xmlns="http://www.w3.org/2000/svg" xmlns:xlink="http://www.w3.org/1999/xlink" x="0px" y="0px" width="36px" height="36px" viewBox="0 0 512 512" style="width: 256px; height: 256px; opacity: 1;" xml:space="preserve">
<style type="text/css">

	.st0{fill:#4D4846;}

</style>
<g>
	<path class="st0" d="M256,0C114.609,0,0,114.625,0,256c0,141.391,114.609,256,256,256c141.375,0,256-114.609,256-256
		C512,114.625,397.375,0,256,0z M316.531,183.578L310.359,181c-10.172-4.313-20.75-6.469-31.422-6.469
		c-30.906,0-59.297,17.906-72.938,45.359h103.094l-6.359,30.797H197.641c-0.141,1.734-0.219,3.531-0.219,5.313
		c0,4.391,0.391,8.875,1.141,13.375h100.359l-6.344,30.781h-82c14.938,23.266,40.391,37.359,68.359,37.359
		c9.469,0,18.984-1.766,28.234-5.203l7.375-2.75v43.313l-4.031,1.094c-10.391,2.781-21,4.203-31.578,4.203
		c-50.313,0-95.563-31.188-113.781-78.016h-26.016v-30.781h18.453c-0.547-4.719-0.844-9.125-0.844-13.375
		c0-1.766,0.047-3.578,0.125-5.313h-17.734v-30.797h23.219c15.766-50.875,63.109-86.078,116.578-86.078
		c14.203,0,28.141,2.5,41.484,7.375l4.438,1.625L316.531,183.578z" style="fill: #4D4846;"></path>
</g>
</svg>
