<!--?xml version="1.0" encoding="utf-8"?-->
<!-- Generator: Adobe Illustrator 15.1.0, SVG Export Plug-In . SVG Version: 6.00 Build 0)  -->

<svg id="a" version="1.1" xmlns="http://www.w3.org/2000/svg" xmlns:xlink="http://www.w3.org/1999/xlink" x="0px" y="0px"
	width="36px" height="36px" viewBox="0 0 512 512" xml:space="preserve">
	<style type="text/css">
		.st0 {
			fill: #4D4D4D;
		}
	</style>
	<g>
		<path class="st0" d="M256,0C114.625,0,0,114.625,0,256c0,141.391,114.625,256,256,256s256-114.609,256-256
		C512,114.625,397.375,0,256,0z M357.766,235h-70.109l-7.531,11.719v28.063h77.641v0.094v34.063v5.688h-77.641v60.156h-48.234
		v-60.156H154.25v-5.688v-34.063v-0.094h77.641v-28.016L224.344,235H154.25v-34.016h48.203l-40.984-63.766h40.875l53.641,83.469
		l53.688-83.469h40.859l-40.953,63.766h48.188V235z"></path>
	</g>
</svg>