<!--?xml version="1.0" encoding="utf-8"?-->
<!-- Generator: Adobe Illustrator 15.1.0, SVG Export Plug-In . SVG Version: 6.00 Build 0)  -->

<svg version="1.1" id="_x32_" xmlns="http://www.w3.org/2000/svg" xmlns:xlink="http://www.w3.org/1999/xlink" x="0px" y="0px" width="36px" height="36px" viewBox="0 0 512 512" style="width: 256px; height: 256px; opacity: 1;" xml:space="preserve">
<style type="text/css">

	.st0{fill:#4D4846;}

</style>
<g>
	<path class="st0" d="M256,0C114.609,0,0,114.625,0,256c0,141.391,114.609,256,256,256c141.375,0,256-114.609,256-256
		C512,114.625,397.375,0,256,0z M333.297,321.875c-4.313,8.094-10.25,14.844-17.766,20.375c-7.531,5.531-16.547,9.625-27.047,12.328
		c-4.594,1.172-9.391,1.984-14.266,2.641v30.531h-36.453v-29.938c-10.375-0.859-20.297-2.484-29.641-5.063
		c-14.266-3.891-32.953-19.688-32.953-19.688c-1.609-0.906-2.656-2.563-2.891-4.375c-0.219-1.844,0.406-3.688,1.703-5l18.281-18.266
		c1.969-1.953,5.016-2.328,7.375-0.859c0,0,13.672,11.875,24.031,14.688s20.641,4.234,30.891,4.234
		c12.938,0,23.625-2.281,32.094-6.859c8.5-4.594,12.734-11.703,12.734-21.406c0-7-2.078-12.531-6.281-16.563
		c-4.156-4.031-11.219-6.563-21.203-7.656l-32.703-2.844c-19.359-1.875-34.328-7.281-44.813-16.156
		c-10.516-8.875-15.75-22.344-15.75-40.375c0-9.938,2.016-18.828,6.063-26.656c4.031-7.781,9.547-14.406,16.547-19.766
		c7.016-5.391,15.156-9.422,24.438-12.109c3.875-1.125,7.953-1.859,12.078-2.531V124.25h36.453v25.781
		c8.516,0.813,16.609,2.188,24.156,4.266c12.781,3.484,26.219,14,26.219,14c1.672,0.859,2.828,2.516,3.109,4.391
		s-0.344,3.75-1.656,5.109l-17.125,17.406c-1.828,1.844-4.656,2.328-6.984,1.109c0,0-10.156-7.219-18.906-9.5
		c-8.766-2.281-17.969-3.438-27.656-3.438c-12.672,0-22.016,2.406-28.063,7.25c-6.063,4.875-9.078,11.188-9.078,18.969
		c0,7.031,2.125,12.406,6.453,16.156c4.313,3.781,11.563,6.234,21.813,7.281l28.641,2.438c21.281,1.875,37.359,7.516,48.25,16.938
		c10.922,9.438,16.375,23.156,16.375,41.188C339.766,304.375,337.609,313.781,333.297,321.875z" style="fill: #4D4846;"></path>
</g>
</svg>
