<!--?xml version="1.0" encoding="utf-8"?-->
<!-- Generator: Adobe Illustrator 15.1.0, SVG Export Plug-In . SVG Version: 6.00 Build 0)  -->

<svg version="1.1" id="_x32_" xmlns="http://www.w3.org/2000/svg" xmlns:xlink="http://www.w3.org/1999/xlink" x="0px" y="0px" width="36px" height="36px" viewBox="0 0 512 512" style="width: 256px; height: 256px; opacity: 1;" xml:space="preserve">
<style type="text/css">

	.st0{fill:#4D4846;}

</style>
<g>
	<path class="st0" d="M277.672,228.625c5.922-3.875,8.891-10.031,8.891-18.484c0-8.766-2.672-15-8-18.703
		c-5.344-3.734-13.672-5.594-25.016-5.594h-21.5v48.594h19.641C263.094,234.438,271.75,232.484,277.672,228.625z" style="fill: #4D4846;"></path>
	<path class="st0" d="M286.094,283.5c-2.672-2.031-6.094-3.594-10.25-4.688c-4.156-1.078-9.203-1.625-15.125-1.625H233v49.281
		h27.844c6.25,0,11.484-0.703,15.688-2.078c4.219-1.406,7.594-3.266,10.125-5.609c2.531-2.313,4.375-5.016,5.516-8.125
		c1.109-3.094,1.672-6.391,1.672-9.891c0-3.625-0.609-6.906-1.875-9.813C290.719,288.047,288.781,285.578,286.094,283.5z" style="fill: #4D4846;"></path>
	<path class="st0" d="M256,0C114.625,0,0,114.625,0,256c0,141.391,114.625,256,256,256s256-114.609,256-256
		C512,114.625,397.375,0,256,0z M350.5,327.047c-3.797,7.859-9.313,14.625-16.578,20.313c-7.25,5.688-13.453,10.141-24.063,13.375
		c-8.375,2.547-18.891,4.063-28.719,4.594v29.656h-26.516v-29.422h-24.031v29.422h-26.516v-29.422h-21.047h-27.219v-17.75
		c0-5.219-0.375-8.375,5.047-9.453c0.484-0.078,1.156-0.188,2.047-0.328c0.875-0.172,11.469-0.813,13.844-0.813
		c4.281,0,6.281-4.047,6.281-8.094v-146.25c0-4.922-2.641-6.844-6.281-7.359c-2.344-0.328-12.969-0.672-13.844-0.813
		c-0.891-0.156-1.578-0.25-2.047-0.344c-5.422-1.078-5.047-4.234-5.047-9.453v-17.75h27.219h21.047v-30.141h26.516v30.219
		l24.031,0.063v-30.281h26.516v30.703c14.328,1.203,31.984,5.703,44.156,15.141c6.813,5.297,12.109,11.125,15.359,18.281
		c3.25,7.141,4.875,15.203,4.875,24.156c0,5.156-0.813,10.047-2.438,14.734s-4.156,9.063-7.563,13.141
		c-3.406,4.094-14.813,15.609-25.016,19.563c31.125,5.406,45.656,22.953,45.672,48.641
		C356.188,310.641,354.297,319.188,350.5,327.047z" style="fill: #4D4846;"></path>
</g>
</svg>
